<svg width="24" height="24" viewBox="0 0 24 24" fill="none" xmlns="http://www.w3.org/2000/svg">
<path d="M8.12096 21.0001H15.879C16.5612 21.0001 17.2156 20.729 17.698 20.2466C18.1804 19.7642 18.4515 19.1098 18.4515 18.4276V7.74756H15.879V18.4276H5.54846C5.54846 19.1098 5.81949 19.7642 6.30193 20.2466C6.78437 20.729 7.43869 21.0001 8.12096 21.0001Z" fill="white"/>
<path d="M15.879 3H8.12096C7.43869 3 6.78437 3.27103 6.30193 3.75347C5.81949 4.23591 5.54846 4.89023 5.54846 5.5725V16.2525H8.12096V5.5725H18.4515C18.4515 4.89023 18.1804 4.23591 17.698 3.75347C17.2156 3.27103 16.5612 3 15.879 3Z" fill="white"/>
</svg>
